<svg width="1000" height="1000" viewBox="0 0 1000 1000" fill="none" xmlns="http://www.w3.org/2000/svg">
<rect width="1000" height="1000" rx="500" fill="black"/>
<path d="M217.442 396.332C240.491 332.769 284.326 278.849 341.844 243.308C399.362 207.768 467.196 192.687 534.355 200.509C601.513 208.332 664.065 238.601 711.874 286.41L786.711 361.247C806.237 380.773 806.237 412.432 786.711 431.958L723.013 495.656C719.107 499.561 719.107 505.893 723.013 509.798L763.663 550.449C793.671 580.457 793.671 629.111 763.663 659.119L711.874 710.908C684.002 738.781 650.912 760.892 614.495 775.976C578.077 791.061 539.044 798.824 499.626 798.824C460.208 798.824 421.175 791.06 384.757 775.976C356.343 764.206 329.954 748.159 306.489 728.436C275 705 231.301 652.695 211.184 581.363C210.967 580.845 210.778 580.307 210.621 579.751C193.719 519.517 196.033 455.37 217.442 396.332ZM465.166 415.466C448.712 422.281 434.647 433.823 424.752 448.631C414.858 463.44 409.577 480.85 409.577 498.66C409.577 516.47 414.858 533.881 424.753 548.689C434.648 563.497 448.712 575.04 465.166 581.855C481.62 588.671 499.726 590.454 517.193 586.979C529.928 584.446 541.906 579.201 552.342 571.665C558.793 567.007 567.861 566.895 573.488 572.521L595.562 594.596C601.02 600.055 601.22 608.861 595.621 614.003C594.971 615.018 594.204 615.98 593.317 616.867L583.064 627.119C583.064 627.119 560.212 649.666 547.002 663.182C522.798 687.946 495.597 714.662 460.914 735.649C473.683 737.735 486.628 738.792 499.626 738.792C531.16 738.792 562.386 732.581 591.52 720.513C620.654 708.446 647.126 690.756 669.424 668.458L712.723 625.16C723.976 613.906 723.976 595.661 712.724 584.408L563.3 434.984C550.707 422.391 534.661 413.816 517.194 410.341C499.726 406.867 481.62 408.65 465.166 415.466ZM373.401 294.378C327.386 322.81 292.318 365.947 273.878 416.797C257.213 462.754 255.014 512.579 267.364 559.626C267.397 559.727 267.433 559.827 267.466 559.928C291.029 631.362 328.457 673.13 352.558 686.872C376.077 700.282 400.495 698.623 427.488 685.961C441.895 679.203 461.893 662.119 477.887 647.159C465.692 645.374 453.699 642.085 442.191 637.318C414.768 625.959 391.328 606.722 374.836 582.041C358.346 557.361 349.544 528.344 349.544 498.661C349.544 468.977 358.345 439.959 374.836 415.279C391.328 390.598 414.768 371.361 442.192 360.002C469.615 348.643 499.793 345.67 528.906 351.461C558.018 357.252 584.761 371.546 605.75 392.535L666.444 453.23C670.349 457.135 676.681 457.135 680.586 453.23L730.119 403.697C734.024 399.792 734.024 393.46 730.119 389.555L669.424 328.86C631.177 290.613 581.135 266.399 527.408 260.141C473.682 253.882 419.415 265.946 373.401 294.378Z" fill="white"/>
</svg>
