<svg width="974" height="278" viewBox="0 0 974 278" fill="none" xmlns="http://www.w3.org/2000/svg">
<path d="M929.182 77.6094C935.786 77.6094 941.672 78.2531 946.838 79.5406C952.058 80.7744 956.478 82.7056 960.1 85.3342C963.722 87.9627 966.465 91.2619 968.329 95.2315C970.246 99.2012 971.205 103.922 971.205 109.394C971.205 114.222 970.087 118.674 967.85 122.751C965.666 126.774 962.284 130.047 957.703 132.568C956.706 133.123 955.649 133.626 954.533 134.078C957.163 134.747 959.498 135.719 961.538 136.994C965.799 139.622 968.941 143.002 970.965 147.132C972.989 151.263 974.001 155.715 974.001 160.49C974.001 168 972.377 174.303 969.128 179.399C965.932 184.496 961.245 188.331 955.067 190.906C948.942 193.481 941.512 194.769 932.777 194.769H897.01C892.672 194.769 889.156 191.227 889.156 186.858V85.5196C889.156 81.1509 892.672 77.6094 897.01 77.6094H929.182ZM911.126 173.433C911.126 175.617 912.885 177.388 915.053 177.388H932.777C937.145 177.388 940.74 176.664 943.563 175.215C946.439 173.767 948.569 171.782 949.954 169.261C951.392 166.686 952.111 163.735 952.111 160.409C952.111 156.762 951.472 153.597 950.194 150.914C948.969 148.232 946.998 146.167 944.282 144.718C941.618 143.27 938.103 142.546 933.736 142.546H915.053C912.885 142.546 911.126 144.317 911.126 146.501V173.433ZM911.126 122.98C911.126 125.165 912.885 126.935 915.053 126.935H929.342C933.709 126.935 937.358 126.318 940.287 125.085C943.216 123.851 945.427 122.054 946.918 119.693C948.463 117.333 949.235 114.463 949.235 111.083C949.235 107.328 948.516 104.271 947.078 101.91C945.693 99.5499 943.509 97.8333 940.527 96.7604C937.544 95.6339 933.762 95.0706 929.182 95.0706H915.053C912.885 95.0706 911.126 96.8414 911.126 99.0257V122.98Z" fill="black"/>
<path d="M356.067 164.352C356.067 162.099 355.72 160.087 355.028 158.317C354.389 156.493 353.191 154.857 351.433 153.409C349.729 151.907 347.305 150.458 344.163 149.064C341.074 147.615 337.079 146.113 332.179 144.557C326.746 142.841 321.687 140.91 317 138.764C312.313 136.618 308.185 134.124 304.616 131.28C301.101 128.437 298.358 125.165 296.388 121.464C294.417 117.708 293.432 113.363 293.432 108.428C293.432 103.6 294.444 99.2012 296.467 95.2315C298.545 91.2618 301.474 87.8554 305.256 85.0122C309.037 82.1155 313.484 79.8892 318.597 78.3335C323.764 76.7778 329.463 76 335.694 76C344.323 76 351.779 77.5825 358.064 80.7475C364.402 83.9125 369.302 88.2041 372.764 93.6222C375.538 97.9641 377.201 102.737 377.752 107.94C377.982 110.112 376.199 111.888 374.03 111.888H359.993C357.825 111.888 356.115 110.103 355.738 107.952C355.376 105.878 354.713 103.972 353.75 102.232C352.258 99.4426 349.968 97.2431 346.879 95.6338C343.843 94.0245 340.008 93.2198 335.375 93.2198C330.901 93.2198 327.172 93.8904 324.19 95.2315C321.261 96.5726 319.05 98.3965 317.559 100.703C316.121 103.01 315.402 105.585 315.402 108.428C315.402 110.574 315.908 112.505 316.92 114.222C317.932 115.885 319.45 117.467 321.474 118.969C323.497 120.417 326.001 121.785 328.983 123.073C332.019 124.307 335.534 125.541 339.529 126.774C345.92 128.706 351.513 130.851 356.306 133.212C361.153 135.572 365.174 138.254 368.37 141.258C371.619 144.262 374.042 147.642 375.64 151.397C377.291 155.152 378.117 159.417 378.117 164.191C378.117 169.234 377.131 173.74 375.161 177.71C373.19 181.679 370.367 185.059 366.692 187.848C363.017 190.638 358.597 192.757 353.43 194.205C348.317 195.654 342.592 196.378 336.254 196.378C330.608 196.378 325.015 195.627 319.476 194.125C313.99 192.569 309.01 190.262 304.537 187.205C300.063 184.093 296.494 180.177 293.831 175.457C291.732 171.694 290.461 167.432 290.016 162.669C289.813 160.495 291.595 158.72 293.763 158.72H307.96C310.128 158.72 311.846 160.499 312.135 162.664C312.409 164.723 312.913 166.573 313.644 168.215C314.869 170.79 316.574 172.908 318.757 174.571C320.994 176.181 323.604 177.361 326.587 178.112C329.569 178.863 332.792 179.238 336.254 179.238C340.727 179.238 344.402 178.622 347.279 177.388C350.208 176.1 352.392 174.33 353.83 172.077C355.321 169.824 356.067 167.249 356.067 164.352Z" fill="black"/>
<path d="M433.835 179.641C436.818 179.641 439.481 179.051 441.824 177.87C444.168 176.69 446.032 175.027 447.417 172.881C448.184 171.737 448.761 170.494 449.149 169.151C449.74 167.11 451.404 165.398 453.515 165.398H465.628C467.825 165.398 469.624 167.221 469.303 169.41C468.67 173.72 467.127 177.667 464.673 181.25C461.478 185.917 457.217 189.618 451.891 192.354C446.618 195.037 440.706 196.378 434.155 196.378C427.497 196.378 421.692 195.251 416.738 192.998C411.785 190.745 407.657 187.607 404.355 183.583C401.106 179.56 398.656 174.893 397.005 169.582C395.407 164.271 394.608 158.585 394.608 152.523V149.948C394.608 143.887 395.407 138.2 397.005 132.89C398.656 127.579 401.106 122.912 404.355 118.888C407.657 114.865 411.785 111.727 416.738 109.474C421.692 107.221 427.471 106.094 434.075 106.094C441.052 106.094 447.177 107.462 452.45 110.198C457.776 112.934 461.93 116.796 464.913 121.785C467.332 125.761 468.821 130.298 469.38 135.398C469.621 137.593 467.83 139.407 465.637 139.407H453.527C451.411 139.407 449.725 137.702 449.281 135.618C448.934 133.985 448.392 132.459 447.657 131.039C446.378 128.571 444.567 126.586 442.224 125.084C439.88 123.582 437.031 122.831 433.675 122.831C430.107 122.831 427.124 123.582 424.728 125.084C422.384 126.586 420.547 128.652 419.215 131.28C417.937 133.855 417.031 136.752 416.499 139.971C416.019 143.136 415.78 146.462 415.78 149.948V152.523C415.78 156.064 416.019 159.444 416.499 162.662C417.031 165.881 417.937 168.778 419.215 171.353C420.547 173.874 422.384 175.885 424.728 177.388C427.124 178.89 430.16 179.641 433.835 179.641Z" fill="black"/>
<path d="M484.842 152.121V150.431C484.842 144.048 485.747 138.174 487.558 132.809C489.369 127.391 492.005 122.697 495.467 118.727C498.929 114.758 503.164 111.673 508.17 109.474C513.177 107.221 518.876 106.094 525.267 106.094C531.765 106.094 537.517 107.221 542.524 109.474C547.583 111.673 551.844 114.758 555.306 118.727C558.768 122.697 561.405 127.391 563.216 132.809C565.026 138.174 565.932 144.048 565.932 150.431V152.121C565.932 158.451 565.026 164.325 563.216 169.743C561.405 175.108 558.768 179.802 555.306 183.825C551.844 187.795 547.61 190.879 542.604 193.078C537.597 195.278 531.871 196.378 525.427 196.378C519.035 196.378 513.31 195.278 508.25 193.078C503.19 190.879 498.929 187.795 495.467 183.825C492.005 179.802 489.369 175.108 487.558 169.743C485.747 164.325 484.842 158.451 484.842 152.121ZM505.933 150.431V152.121C505.933 155.93 506.306 159.497 507.052 162.823C507.797 166.149 508.942 169.073 510.487 171.594C512.032 174.115 514.029 176.1 516.479 177.548C518.982 178.943 521.965 179.641 525.427 179.641C528.835 179.641 531.765 178.943 534.215 177.548C536.665 176.1 538.662 174.115 540.207 171.594C541.805 169.073 542.976 166.149 543.722 162.823C544.468 159.497 544.84 155.93 544.84 152.121V150.431C544.84 146.676 544.468 143.162 543.722 139.89C542.976 136.564 541.805 133.641 540.207 131.119C538.662 128.544 536.638 126.533 534.135 125.084C531.685 123.582 528.729 122.831 525.267 122.831C521.858 122.831 518.929 123.582 516.479 125.084C514.029 126.533 512.032 128.544 510.487 131.119C508.942 133.641 507.797 136.564 507.052 139.89C506.306 143.162 505.933 146.676 505.933 150.431Z" fill="black"/>
<path d="M629.082 106.095C634.568 106.095 639.388 107.141 643.543 109.233C647.75 111.325 651.292 114.329 654.168 118.245C657.044 122.161 659.202 126.828 660.64 132.246C662.078 137.664 662.797 143.699 662.797 150.351V152.041C662.797 158.371 662.051 164.245 660.56 169.663C659.122 175.028 656.991 179.722 654.168 183.745C651.345 187.715 647.83 190.826 643.623 193.079C639.468 195.278 634.675 196.378 629.242 196.378C623.916 196.378 619.282 195.359 615.341 193.32C612.282 191.697 609.593 189.556 607.272 186.899V224.288C607.272 226.472 605.514 228.243 603.345 228.243H590.027C587.859 228.243 586.101 226.472 586.101 224.288V111.659C586.101 109.475 587.859 107.704 590.027 107.704H602.597C604.765 107.704 606.523 109.475 606.523 111.659V116.602C609.002 113.49 611.915 111.034 615.261 109.233C619.202 107.141 623.809 106.095 629.082 106.095ZM623.49 122.993C620.241 122.993 617.445 123.529 615.101 124.602C612.758 125.675 610.84 127.204 609.349 129.189C608.569 130.227 607.877 131.367 607.272 132.611V169.788C608.647 172.707 610.591 175.053 613.104 176.825C615.82 178.702 619.336 179.641 623.65 179.641C626.899 179.641 629.668 178.917 631.958 177.468C634.249 176.02 636.113 174.035 637.551 171.514C638.989 168.939 640.028 165.989 640.667 162.663C641.306 159.337 641.625 155.796 641.625 152.041V150.351C641.625 146.489 641.279 142.922 640.587 139.649C639.894 136.323 638.829 133.427 637.391 130.959C635.953 128.438 634.089 126.48 631.799 125.085C629.508 123.69 626.739 122.993 623.49 122.993Z" fill="black"/>
<path d="M719.555 106.094C725.68 106.094 731.086 107.14 735.773 109.232C740.46 111.271 744.375 114.168 747.518 117.923C750.66 121.678 753.03 126.184 754.628 131.441C756.226 136.645 757.025 142.411 757.025 148.741V153.718C757.025 155.902 755.267 157.673 753.098 157.673H705.388C703.08 157.673 701.244 159.678 701.745 161.947C701.926 162.766 702.137 163.567 702.379 164.352C703.391 167.463 704.855 170.172 706.773 172.479C708.743 174.732 711.087 176.502 713.803 177.79C716.573 179.024 719.715 179.641 723.23 179.641C727.651 179.641 731.646 178.782 735.214 177.066C737.541 175.929 739.669 174.448 741.6 172.625C743.342 170.98 746.122 170.808 747.779 172.54L753.054 178.052C754.344 179.4 754.536 181.49 753.328 182.912C751.819 184.687 750.015 186.413 747.917 188.09C744.881 190.557 741.206 192.569 736.892 194.125C732.578 195.627 727.598 196.378 721.952 196.378C715.401 196.378 709.516 195.305 704.296 193.159C699.077 191.013 694.629 188.036 690.954 184.227C687.332 180.365 684.536 175.885 682.566 170.789C680.648 165.639 679.689 160.114 679.689 154.213V150.995C679.689 144.289 680.648 138.2 682.566 132.729C684.483 127.203 687.199 122.456 690.715 118.486C694.23 114.516 698.437 111.459 703.337 109.313C708.237 107.167 713.643 106.094 719.555 106.094ZM719.396 122.831C716.253 122.831 713.51 123.529 711.167 124.923C708.877 126.265 706.959 128.196 705.415 130.717C703.923 133.185 702.805 136.135 702.059 139.568C701.665 141.383 703.096 143.028 704.941 143.028H734.655C735.537 143.028 736.253 142.308 736.253 141.419C736.146 138.039 735.507 134.955 734.335 132.165C733.164 129.322 731.353 127.069 728.903 125.406C726.453 123.69 723.284 122.831 719.396 122.831Z" fill="black"/>
<path d="M812.904 77.6099C820.68 77.6099 827.764 78.9241 834.155 81.5527C840.6 84.1813 846.166 87.9632 850.853 92.8985C855.593 97.7801 859.215 103.627 861.718 110.44C864.274 117.253 865.553 124.871 865.553 133.293V139.167C865.553 147.535 864.274 155.153 861.718 162.019C859.215 168.832 855.593 174.679 850.853 179.561C846.166 184.443 840.573 188.198 834.075 190.826C827.578 193.455 820.361 194.769 812.425 194.769H785.526C781.188 194.769 777.672 191.228 777.672 186.859V85.52C777.672 81.1514 781.188 77.6099 785.526 77.6099H812.904ZM799.642 172.115C799.642 175.027 801.986 177.388 804.878 177.388H812.425C819.189 177.388 824.861 175.886 829.442 172.882C834.022 169.824 837.484 165.452 839.828 159.766C842.171 154.026 843.343 147.16 843.343 139.167V133.132C843.343 126.963 842.677 121.518 841.346 116.797C840.014 112.076 838.043 108.107 835.434 104.888C832.877 101.669 829.708 99.2285 825.926 97.5655C822.145 95.9026 817.804 95.0711 812.904 95.0711H804.878C801.986 95.0711 799.642 97.4321 799.642 100.345V172.115Z" fill="black"/>
<path d="M47.5274 102.199C55.197 81.0492 69.7824 63.1077 88.9211 51.2819C108.06 39.4561 130.631 34.4381 152.977 37.0411C175.324 39.644 196.137 49.7157 212.045 65.6238L236.946 90.525C243.443 97.0221 243.443 107.556 236.946 114.053L215.751 135.248C214.452 136.548 214.452 138.655 215.751 139.954L229.277 153.48C239.262 163.465 239.262 179.654 229.277 189.639L212.045 206.871C202.771 216.146 191.76 223.503 179.643 228.522C167.525 233.541 154.538 236.124 141.422 236.125C128.306 236.124 115.318 233.541 103.2 228.522C93.7456 224.606 84.9649 219.266 77.157 212.703C66.6794 204.905 52.139 187.501 45.4452 163.766C45.3728 163.594 45.31 163.415 45.258 163.23C39.634 143.188 40.4038 121.844 47.5274 102.199ZM129.955 108.566C124.48 110.834 119.8 114.674 116.508 119.601C113.216 124.529 111.458 130.322 111.458 136.248C111.458 142.174 113.216 147.967 116.508 152.895C119.801 157.822 124.48 161.663 129.955 163.93C135.43 166.198 141.455 166.791 147.267 165.635C151.504 164.792 155.49 163.047 158.962 160.54C161.109 158.99 164.126 158.952 165.998 160.825L173.343 168.17C175.16 169.986 175.226 172.916 173.363 174.627C173.147 174.965 172.891 175.285 172.596 175.58L169.185 178.991C169.185 178.991 161.581 186.494 157.185 190.991C149.132 199.231 140.081 208.12 128.541 215.104C132.789 215.798 137.097 216.149 141.422 216.149C151.914 216.149 162.304 214.083 171.998 210.067C181.692 206.052 190.501 200.166 197.92 192.747L212.328 178.339C216.072 174.595 216.072 168.524 212.328 164.78L162.609 115.06C158.418 110.87 153.079 108.017 147.267 106.861C141.455 105.704 135.43 106.298 129.955 108.566ZM99.4213 68.2749C84.1104 77.7355 72.4418 92.0888 66.3061 109.009C60.761 124.3 60.0292 140.879 64.1385 156.534C64.1497 156.567 64.1614 156.601 64.1725 156.634C72.0129 180.403 84.4668 194.301 92.486 198.873C100.312 203.336 108.437 202.784 117.418 198.57C122.212 196.322 128.866 190.637 134.188 185.66C130.13 185.066 126.14 183.971 122.311 182.385C113.186 178.605 105.386 172.204 99.899 163.992C94.4118 155.78 91.4831 146.125 91.483 136.248C91.483 126.371 94.4118 116.716 99.899 108.503C105.386 100.291 113.186 93.8904 122.311 90.1107C131.436 86.3311 141.477 85.3419 151.164 87.2687C160.851 89.1956 169.749 93.952 176.733 100.936L196.929 121.131C198.228 122.431 200.335 122.431 201.634 121.131L218.116 104.65C219.415 103.35 219.415 101.244 218.116 99.9441L197.92 79.7486C185.194 67.0221 168.543 58.9651 150.666 56.8827C132.789 54.8004 114.732 58.8144 99.4213 68.2749Z" fill="black"/>
</svg>
